{"title":"COP_OUT","uid":8041586,"size":1171335156,"categoryP":"video","categoryS":"movies","magnet":"?xt=urn:btih:f833fa3d15d7225ec65e13c944349bd75afb944d&amp;dn=COP_OUT&amp;tr=udp%3A%2F%2Ftracker.openbittorrent.com%3A80&amp;tr=udp%3A%2F%2Fopen.demonii.com%3A1337&amp;tr=udp%3A%2F%2Ftracker.coppersurfer.tk%3A6969&amp;tr=udp%3A%2F%2Fexodus.desync.com%3A6969","seeders":3,"leechers":0,"uploader":"Armani-1","files":5,"time":1358642941,"description":"[URL=http://www.piczend.com/image/1358610752_vlcsnap-2013-01-18-22h14m53s213 - copy.png][IMG]http://cdn.piczend.com/images/VTUfX7sd/thumbnail/1358610752_vlcsnap-2013-01-18-22h14m53s213%20-%20copy.png[/IMG][/URL]\n[URL=http://www.piczend.com/image/1358610752_vlcsnap-2013-01-18-22h15m10s133.png][IMG]http://cdn.piczend.com/images/wJZRqnco/thumbnail/1358610752_vlcsnap-2013-01-18-22h15m10s133.png[/IMG][/URL]\n[URL=http://www.piczend.com/image/1358610748_vlcsnap-2013-01-18-22h15m16s188.png][IMG]http://cdn.piczend.com/images/juXshrg8/thumbnail/1358610748_vlcsnap-2013-01-18-22h15m16s188.png[/IMG][/URL]\n[URL=http://www.piczend.com/image/1358610749_vlcsnap-2013-01-18-22h15m20s228.png][IMG]http://cdn.piczend.com/images/LhZshvoF/thumbnail/1358610749_vlcsnap-2013-01-18-22h15m20s228.png[/IMG][/URL]\n[URL=http://www.piczend.com/image/1358610750_vlcsnap-2013-01-18-22h15m25s24.png][IMG]http://cdn.piczend.com/images/k9CzCg5T/thumbnail/1358610750_vlcsnap-2013-01-18-22h15m25s24.png[/IMG][/URL]\n\nVideo\nID : 0\nFormat : MPEG-4 Visual\nFormat profile : Advanced Simple@L5\nFormat settings, BVOP : 2\nFormat settings, QPel : No\nFormat settings, GMC : No warppoints\nFormat settings, Matrix : Default (H.263)\nMuxing mode : Packed bitstream\nCodec ID : XVID\nCodec ID/Hint : XviD\nDuration : 1h 47mn\nBit rate : 1 050 Kbps\nWidth : 720 pixels\nHeight : 304 pixels\nDisplay aspect ratio : 2.35:1\nFrame rate : 23.976 fps\nColor space : YUV\nChroma subsampling : 4:2:0\nBit depth : 8 bits\nScan type : Progressive\nCompression mode : Lossy\nBits/(Pixel*Frame) : 0.200\nStream size : 807 MiB (73%)\nWriting library : XviD 1.2.1 (UTC 2008-12-04)\n\nAudio\nID : 1\nFormat : AC-3\nFormat/Info : Audio Coding 3\nMode extension : CM (complete main)\nFormat settings, Endianness : Big\nCodec ID : 2000\nDuration : 1h 47mn\nBit rate mode : Constant\nBit rate : 384 Kbps\nChannel(s) : 6 channels\nChannel positions : Front: L C R, Side: L R, LFE\nSampling rate : 48.0 KHz\nBit depth : 16 bits\nCompression mode : Lossy\nStream size : 295 MiB (27%)\nAlignment : Aligned on interleaves\nInterleave, duration : 32 ms (0.77 video frame)\n\n","torrent":{"xt":"urn:btih:f833fa3d15d7225ec65e13c944349bd75afb944d","amp;dn":"COP_OUT","amp;tr":["udp%3A%2F%2Ftracker.openbittorrent.com%3A80","udp%3A%2F%2Fopen.demonii.com%3A1337","udp%3A%2F%2Ftracker.coppersurfer.tk%3A6969","udp%3A%2F%2Fexodus.desync.com%3A6969"],"infoHash":"f833fa3d15d7225ec65e13c944349bd75afb944d","infoHashBuffer":{"type":"Buffer","data":[248,51,250,61,21,215,34,94,198,94,19,201,68,52,155,215,90,251,148,77]},"announce":[],"urlList":[]}}